<?xml version="1.0" encoding="UTF-8" standalone="no"?>
<!DOCTYPE svg PUBLIC "-//W3C//DTD SVG 1.1//EN" "http://www.w3.org/Graphics/SVG/1.1/DTD/svg11.dtd">
<svg width="100%" height="100%" viewBox="0 0 500 500" version="1.1" xmlns="http://www.w3.org/2000/svg" xmlns:xlink="http://www.w3.org/1999/xlink" xml:space="preserve" xmlns:serif="http://www.serif.com/" style="fill-rule:evenodd;clip-rule:evenodd;stroke-linejoin:round;stroke-miterlimit:2;">
    <g transform="matrix(0.868056,0,0,0.868056,0,27.7778)">
        <path d="M552,64L159.21,64L211.57,320L504.72,320C515.885,319.999 525.645,312.207 528.12,301.32L575.39,93.32C578.307,80.483 570.146,67.52 557.31,64.6C555.568,64.2 553.787,63.999 552,64Z" style="fill:rgb(118,239,249);fill-rule:nonzero;"/>
        <path d="M218.12,352L486.54,352C499.705,352.002 510.537,362.835 510.537,376C510.537,377.79 510.337,379.574 509.94,381.32L504.42,405.6C523.708,414.941 536.011,434.569 536.011,456.001C536.011,486.721 510.732,512.001 480.011,512.001C449.291,512.001 424.011,486.721 424.011,456.001C424.011,440.956 430.074,426.529 440.82,416L231.18,416C241.929,426.529 247.994,440.959 247.994,456.006C247.994,486.726 222.715,512.006 191.994,512.006C161.273,512.006 135.994,486.726 135.994,456.006C135.994,435.968 146.749,417.4 164.13,407.43L93.88,64L24,64C10.834,64 0,53.166 0,40L0,24C0,10.834 10.834,0 24,0L126.53,0C137.872,0.02 147.727,8.078 150,19.19L218.12,352Z" style="fill:rgb(6,102,154);fill-rule:nonzero;"/>
        <g transform="matrix(0.852703,0,0,0.890907,204.585,71.8856)">
            <g id="dapr">
                <g>
                    <g id="Artboard">
                        <path id="dapr1" serif:id="dapr" d="M89.792,193.509L62.9,193.509L62.9,185.064C60.331,188.289 57.735,190.639 55.111,192.115C50.52,194.684 45.3,195.968 39.452,195.968C29.996,195.968 21.579,192.716 14.2,186.212C5.4,178.45 1,168.175 1,155.385C1,142.376 5.509,131.991 14.528,124.23C21.688,118.054 29.914,114.965 39.206,114.965C44.617,114.965 49.7,116.113 54.455,118.409C57.188,119.721 60.003,121.88 62.9,124.886L62.9,70.365L89.792,70.365L89.792,193.509ZM63.72,155.467C63.72,150.657 62.026,146.571 58.637,143.21C55.248,139.848 51.149,138.168 46.339,138.168C40.982,138.168 36.582,140.19 33.139,144.235C30.351,147.514 28.958,151.258 28.958,155.467C28.958,159.676 30.351,163.42 33.139,166.699C36.528,170.744 40.928,172.766 46.339,172.766C51.203,172.766 55.316,171.099 58.678,167.765C62.039,164.431 63.72,160.331 63.72,155.467ZM190.65,193.509L163.758,193.509L163.758,185.064C161.189,188.289 158.593,190.639 155.97,192.115C151.378,194.684 146.159,195.968 140.31,195.968C130.854,195.968 122.437,192.716 115.058,186.212C106.258,178.45 101.858,168.175 101.858,155.385C101.858,142.376 106.368,131.991 115.386,124.23C122.546,118.054 130.772,114.965 140.064,114.965C145.475,114.965 150.558,116.113 155.314,118.409C158.047,119.721 160.862,121.88 163.758,124.886L163.758,117.425L190.65,117.425L190.65,193.509ZM164.578,155.467C164.578,150.657 162.884,146.571 159.495,143.21C156.106,139.848 152.007,138.168 147.197,138.168C141.841,138.168 137.441,140.19 133.997,144.235C131.21,147.514 129.816,151.258 129.816,155.467C129.816,159.676 131.21,163.42 133.997,166.699C137.386,170.744 141.786,172.766 147.197,172.766C152.062,172.766 156.175,171.099 159.536,167.765C162.898,164.431 164.578,160.331 164.578,155.467ZM294.542,155.549C294.542,168.558 290.033,178.942 281.014,186.704C273.854,192.88 265.628,195.968 256.336,195.968C250.925,195.968 245.842,194.821 241.087,192.525C238.354,191.213 235.539,189.054 232.642,186.048L232.642,231.551L205.75,231.551L205.75,117.425L232.642,117.425L232.642,125.87C235.047,122.699 237.643,120.349 240.431,118.819C245.022,116.25 250.242,114.965 256.09,114.965C265.546,114.965 273.963,118.218 281.342,124.722C290.142,132.483 294.542,142.759 294.542,155.549ZM266.584,155.467C266.584,151.149 265.218,147.405 262.485,144.235C259.042,140.19 254.614,138.168 249.203,138.168C244.339,138.168 240.226,139.835 236.864,143.169C233.503,146.503 231.822,150.602 231.822,155.467C231.822,160.277 233.516,164.362 236.905,167.724C240.294,171.085 244.393,172.766 249.203,172.766C254.614,172.766 259.014,170.744 262.403,166.699C265.191,163.42 266.584,159.676 266.584,155.467ZM363.671,142.267C359.9,140.463 356.074,139.561 352.193,139.561C343.339,139.561 337.6,143.169 334.976,150.384C333.992,153.007 333.5,156.533 333.5,160.96L333.5,193.509L306.609,193.509L306.609,117.425L333.5,117.425L333.5,129.887C336.342,125.46 339.403,122.262 342.683,120.295C347.11,117.671 352.357,116.359 358.424,116.359C359.845,116.359 361.594,116.441 363.671,116.605L363.671,142.267Z" style="fill:rgb(13,33,146);"/>
                        <path id="tie" d="M205.538,194.062L232.615,194.062L234.947,257.634L219.076,268.754L203.206,257.634L205.538,194.062Z" style="fill:rgb(13,33,146);fill-rule:nonzero;"/>
                        <path id="Rectangle-4" d="M247.552,4.279C247.552,3.175 246.656,2.279 245.552,2.279L146.829,2.279C145.726,2.279 144.829,3.175 144.829,4.279L144.829,72.573C144.829,73.677 145.726,74.573 146.829,74.573L245.552,74.573C246.656,74.573 247.552,73.677 247.552,72.573L247.552,4.279Z" style="fill:rgb(13,33,146);"/>
                        <rect id="Rectangle-41" serif:id="Rectangle-4" x="144.829" y="2.279" width="37.998" height="72.294" style="fill:white;fill-opacity:0.08;"/>
                        <path id="Rectangle-3" d="M278.639,73.629C278.639,71.576 276.972,69.909 274.919,69.909L116.111,69.909C114.058,69.909 112.391,71.576 112.391,73.629L112.391,83.54C112.391,85.593 114.058,87.26 116.111,87.26L274.919,87.26C276.972,87.26 278.639,85.593 278.639,83.54L278.639,73.629Z" style="fill:rgb(13,33,146);"/>
                        <rect id="Rectangle-42" serif:id="Rectangle-4" x="112.391" y="69.909" width="51.438" height="21.355" style="fill:white;fill-opacity:0.08;"/>
                    </g>
                </g>
            </g>
        </g>
    </g>
</svg>
